<?xml version="1.0" encoding="UTF-8"?>
<svg width="700pt" height="700pt" version="1.1" viewBox="0 0 700 700" xmlns="http://www.w3.org/2000/svg">
 <g>
  <path d="m466.67 460.83h-233.34c-29.395 0-57.586-11.676-78.371-32.461-20.785-20.785-32.461-48.977-32.461-78.371v-140c0-29.395 11.676-57.586 32.461-78.371 20.785-20.785 48.977-32.461 78.371-32.461h233.34c29.395 0 57.586 11.676 78.371 32.461 20.785 20.785 32.461 48.977 32.461 78.371v140c0 29.395-11.676 57.586-32.461 78.371-20.785 20.785-48.977 32.461-78.371 32.461zm-233.34-326.66c-20.094 0.058593-39.344 8.0703-53.555 22.277-14.207 14.207-22.215 33.461-22.277 53.555v140c0.0625 20.094 8.0703 39.348 22.277 53.555 14.211 14.207 33.461 22.219 53.555 22.277h233.34c20.094-0.058593 39.344-8.0703 53.555-22.277 14.207-14.207 22.215-33.461 22.277-53.555v-140c-0.0625-20.094-8.0703-39.348-22.277-53.555-14.211-14.207-33.461-22.219-53.555-22.277z"/>
  <path d="m350 297.5c-24.68 0.042969-48.66-8.1719-68.133-23.332l-79.566-61.836c-4.0312-2.707-6.7539-6.9688-7.5234-11.762-0.76562-4.7969 0.49609-9.6953 3.4805-13.523 2.9883-3.8281 7.4297-6.2461 12.266-6.6719 4.8359-0.42578 9.6328 1.1758 13.242 4.4258l79.566 61.832c13.363 10.332 29.777 15.938 46.668 15.938s33.305-5.6055 46.668-15.938l79.566-61.832c3.6094-3.25 8.4062-4.8516 13.242-4.4258 4.8359 0.42578 9.2773 2.8438 12.266 6.6719 2.9844 3.8281 4.2461 8.7266 3.4805 13.523-0.76953 4.793-3.4922 9.0547-7.5234 11.762l-79.566 61.832v0.003907c-19.473 15.16-43.453 23.375-68.133 23.332z"/>
 </g>
</svg>
