<?xml version="1.0" encoding="UTF-8"?>
<svg width="700pt" height="700pt" version="1.1" viewBox="0 0 700 700" xmlns="http://www.w3.org/2000/svg">
 <path d="m350 303.33c-6.1875 0-12.125 2.4609-16.5 6.8359s-6.832 10.309-6.832 16.5v70c0 8.3359 4.4453 16.039 11.664 20.207s16.117 4.168 23.336 0 11.664-11.871 11.664-20.207v-70c0-6.1914-2.457-12.125-6.832-16.5s-10.312-6.8359-16.5-6.8359zm116.67-93.332v-46.668c0-41.68-22.238-80.195-58.336-101.04-36.094-20.84-80.57-20.84-116.66 0-36.098 20.84-58.336 59.355-58.336 101.04v46.668c-18.562 0-36.367 7.375-49.496 20.504-13.129 13.125-20.504 30.93-20.504 49.496v163.33c0 18.566 7.375 36.371 20.504 49.5 13.129 13.125 30.934 20.5 49.496 20.5h233.34c18.562 0 36.367-7.375 49.496-20.5 13.129-13.129 20.504-30.934 20.504-49.5v-163.33c0-18.566-7.375-36.371-20.504-49.496-13.129-13.129-30.934-20.504-49.496-20.504zm-186.67-46.668c0-25.008 13.344-48.117 35-60.621 21.656-12.504 48.344-12.504 70 0 21.656 12.504 35 35.613 35 60.621v46.668h-140zm210 280c0 6.1914-2.457 12.125-6.8359 16.5-4.375 4.375-10.309 6.8359-16.496 6.8359h-233.34c-6.1875 0-12.121-2.4609-16.496-6.8359-4.3789-4.375-6.8359-10.309-6.8359-16.5v-163.33c0-6.1875 2.457-12.125 6.8359-16.5 4.375-4.375 10.309-6.832 16.496-6.832h233.34c6.1875 0 12.121 2.457 16.496 6.832 4.3789 4.375 6.8359 10.312 6.8359 16.5z"/>
</svg>
